<?xml version="1.0" encoding="iso-8859-1"?>
<!-- Uploaded to: SVG Repo, www.svgrepo.com, Generator: SVG Repo Mixer Tools -->
<svg fill="#000000" height="800px" width="800px" version="1.1" id="Layer_1" xmlns="http://www.w3.org/2000/svg" xmlns:xlink="http://www.w3.org/1999/xlink" 
	 viewBox="0 0 512.004 512.004" xml:space="preserve">
<g>
	<g>
		<path d="M346.212,227.486c-0.736,0-1.464,0.016-2.192,0.044c-8.88-19.064-27.816-31.224-49.036-31.224
			c-8.668,0-17.152,2.068-24.792,6.02c-8.964-18.432-27.984-30.524-48.696-30.524c-29.832,0-54.1,24.272-54.1,54.108
			c0,0.532,0.008,1.064,0.024,1.6c-0.536-0.02-1.072-0.028-1.596-0.028c-29.832,0-54.1,24.268-54.1,54.1
			c0,29.024,23.476,53.336,52.432,54.22c0.18,0.028,0.364,0.2,0.556,0.2H347.32c0.188,0,0.376-0.172,0.556-0.196
			c28.956-0.884,52.436-25.116,52.436-54.144C400.312,251.834,376.044,227.486,346.212,227.486z"/>
	</g>
</g>
<g>
	<g>
		<path d="M475.664,196.002H350.88c2.584,4,5.012,5.416,7.212,8.42c24.068,3.688,44.5,18.416,56.068,38.82
			c2.776-2.236,6.256-3.636,10.088-3.636c8.936,0,16.212,7.268,16.212,16.204s-7.272,16.208-16.212,16.208
			c-0.208,0-0.396-0.056-0.596-0.064c0.392,3.164,0.664,6.524,0.664,9.788c0,12.176-2.952,22.256-8.076,34.256h59.424
			c19.852,0,36.336-16.468,36.336-36.32V231.93C512,212.082,495.516,196.002,475.664,196.002z M464.296,272.018
			c-8.936,0-16.208-7.272-16.208-16.212s7.268-16.208,16.208-16.208s16.212,7.268,16.212,16.208S473.236,272.018,464.296,272.018z"
			/>
	</g>
</g>
<g>
	<g>
		<path d="M36.368,196.002C16.516,196.002,0,212.082,0,231.93v47.752c0,19.852,16.516,36.32,36.368,36.32h59.424
			c-5.124-12-8.072-22.084-8.072-34.256c0-36.2,24.76-66.772,58.236-75.584c0.912-3.48,2.116-6.16,3.48-10.16H36.368z
			 M55.992,279.558c-13.096,0-23.752-10.652-23.752-23.752c0-13.092,10.652-23.752,23.752-23.752s23.752,10.656,23.752,23.752
			C79.744,268.906,69.088,279.558,55.992,279.558z"/>
	</g>
</g>
<g>
	<g>
		<path d="M221.496,171.802c-0.052,0-0.1,0.008-0.152,0.008h0.368C221.64,171.81,221.568,171.802,221.496,171.802z"/>
	</g>
</g>
<g>
	<g>
		<path d="M475.664,52.002H36.368C16.516,52.002,0,68.21,0,88.062v47.752c0,19.848,16.516,36.188,36.368,36.188H165.28
			c14.22-16,34.148-24.008,56.22-24.008c21.388,0,41.672,8.008,56.216,24.008h197.952c19.852,0,36.336-16.34,36.336-36.192V88.062
			C512,68.21,495.516,52.002,475.664,52.002z M55.992,135.686c-13.096,0-23.752-10.652-23.752-23.752s10.652-23.752,23.752-23.752
			s23.752,10.652,23.752,23.752S69.088,135.686,55.992,135.686z M356,116.002c0,11.048-8.952,20-20,20H120c-11.048,0-20-8.952-20-20
			v-8c0-11.048,8.952-20,20-20h216c11.048,0,20,8.952,20,20V116.002z M384.244,128.142c-8.936,0-16.208-7.268-16.208-16.208
			s7.268-16.212,16.208-16.212s16.208,7.272,16.208,16.212S393.18,128.142,384.244,128.142z M424.248,128.142
			c-8.936,0-16.208-7.268-16.208-16.208s7.268-16.212,16.208-16.212s16.212,7.272,16.212,16.212S433.184,128.142,424.248,128.142z
			 M464.296,128.142c-8.936,0-16.208-7.268-16.208-16.208s7.268-16.212,16.208-16.212s16.212,7.272,16.212,16.212
			S473.236,128.142,464.296,128.142z"/>
	</g>
</g>
<g>
	<g>
		<path d="M475.664,340.002h-77.668c-13.084,12-30.024,19.16-48.576,19.92c-0.7,0.056-1.4,0.08-2.1,0.08H164.712
			c-0.696,0-1.396-0.024-2.092-0.08c-18.556-0.756-35.504-7.92-48.584-19.92H36.368C16.516,340.002,0,355.834,0,375.686v47.752
			c0,19.848,16.516,36.564,36.368,36.564h439.296c19.852,0,36.336-16.716,36.336-36.568v-47.748
			C512,355.834,495.516,340.002,475.664,340.002z M55.992,423.31c-13.096,0-23.752-10.652-23.752-23.752
			c0-13.1,10.652-23.752,23.752-23.752s23.752,10.652,23.752,23.752C79.744,412.658,69.088,423.31,55.992,423.31z M356,404.002
			c0,11.048-8.952,20-20,20H120c-11.048,0-20-8.952-20-20v-8c0-11.048,8.952-20,20-20h216c11.048,0,20,8.952,20,20V404.002z
			 M384.244,415.766c-8.936,0-16.208-7.268-16.208-16.208s7.268-16.208,16.208-16.208s16.208,7.268,16.208,16.208
			S393.18,415.766,384.244,415.766z M424.248,415.766c-8.936,0-16.208-7.268-16.208-16.208s7.268-16.208,16.208-16.208
			s16.212,7.268,16.212,16.208S433.184,415.766,424.248,415.766z M464.296,415.766c-8.936,0-16.208-7.268-16.208-16.208
			s7.268-16.208,16.208-16.208s16.212,7.268,16.212,16.208S473.236,415.766,464.296,415.766z"/>
	</g>
</g>
</svg>