<?xml version="1.0" encoding="iso-8859-1"?>
<!-- Uploaded to: SVG Repo, www.svgrepo.com, Generator: SVG Repo Mixer Tools -->
<svg fill="#000000" height="800px" width="800px" version="1.1" id="Layer_1" xmlns="http://www.w3.org/2000/svg" xmlns:xlink="http://www.w3.org/1999/xlink" 
	 viewBox="0 0 512.004 512.004" xml:space="preserve">
<g>
	<g>
		<path d="M142.636,280.002h-22.824c-11.028,0-19.812-8.992-19.812-20.02v-8.336c0-11.028,8.784-19.644,19.812-19.644h22.796
			c2.72-12,7.548-24,14.12-36H36.124C16.272,196.002,0,212.086,0,231.938v47.752c0,19.852,16.272,36.312,36.124,36.312H156.8
			C150.212,304.002,145.372,292.002,142.636,280.002z M55.752,279.566c-13.1,0-23.752-10.652-23.752-23.752
			c0-13.096,10.652-23.752,23.752-23.752c13.1,0,23.752,10.656,23.752,23.752C79.5,268.914,68.848,279.566,55.752,279.566z"/>
	</g>
</g>
<g>
	<g>
		<path d="M475.42,196.002H355.3c8.916,16,14.62,31.608,16.192,49.664c2.976-3.648,7.444-6.044,12.508-6.044
			c8.936,0,16.208,7.264,16.208,16.2c0,8.94-7.268,16.204-16.208,16.204c-5.068,0-9.544-2.232-12.516-5.884
			c-1.588,18.064-7.312,33.86-16.252,49.86h120.192c19.852,0,36.58-16.46,36.58-36.312v-47.752
			C512,212.086,495.272,196.002,475.42,196.002z M424.004,272.022c-8.936,0-16.208-7.268-16.208-16.208s7.268-16.208,16.208-16.208
			s16.212,7.272,16.212,16.208C440.216,264.75,432.94,272.022,424.004,272.022z M464.056,272.022
			c-8.936,0-16.208-7.268-16.208-16.208s7.268-16.208,16.208-16.208s16.212,7.272,16.212,16.208
			C480.268,264.75,472.992,272.022,464.056,272.022z"/>
	</g>
</g>
<g>
	<g>
		<path d="M475.42,52.002H36.124C16.272,52.002,0,68.214,0,88.066v47.752c0,19.852,16.272,36.184,36.124,36.184h140.032
			c20.812-20,48.928-32,79.86-32c30.932,0,59.048,12,79.86,32h139.548c19.852,0,36.58-16.332,36.58-36.184V88.066
			C512,68.214,495.272,52.002,475.42,52.002z M55.752,135.69c-13.1,0-23.752-10.652-23.752-23.748S42.652,88.19,55.752,88.19
			c13.1,0,23.752,10.656,23.752,23.752S68.848,135.69,55.752,135.69z M356,116.002c0,11.044-8.952,20-20,20H120
			c-11.048,0-20-8.956-20-20v-8c0-11.044,8.952-20,20-20h216c11.048,0,20,8.956,20,20V116.002z M384,128.15
			c-8.936,0-16.208-7.272-16.208-16.208c0-8.936,7.268-16.208,16.208-16.208s16.208,7.268,16.208,16.208S392.936,128.15,384,128.15z
			 M424.004,128.15c-8.936,0-16.208-7.272-16.208-16.208c0-8.936,7.268-16.208,16.208-16.208s16.212,7.268,16.212,16.208
			S432.94,128.15,424.004,128.15z M464.056,128.15c-8.936,0-16.208-7.272-16.208-16.208c0-8.936,7.268-16.208,16.208-16.208
			s16.212,7.268,16.212,16.208S472.992,128.15,464.056,128.15z"/>
	</g>
</g>
<g>
	<g>
		<path d="M475.42,340.002H335.876c-20.812,20-48.928,32.004-79.86,32.004s-59.048-12.004-79.86-32.004H36.124
			C16.272,340.002,0,355.838,0,375.69v47.752c0,19.848,16.272,36.56,36.124,36.56H475.42c19.852,0,36.58-16.708,36.58-36.56V375.69
			C512,355.838,495.272,340.002,475.42,340.002z M55.752,423.318C42.656,423.318,32,412.662,32,399.566s10.652-23.752,23.752-23.752
			c13.1,0,23.752,10.656,23.752,23.752C79.5,412.666,68.848,423.318,55.752,423.318z M356,404.002c0,11.044-8.952,20-20,20H120
			c-11.048,0-20-8.956-20-20v-8c0-11.044,8.952-20,20-20h216c11.048,0,20,8.956,20,20V404.002z M384,415.774
			c-8.936,0-16.208-7.268-16.208-16.208s7.268-16.208,16.208-16.208s16.208,7.272,16.208,16.208
			C400.208,408.502,392.936,415.774,384,415.774z M424.004,415.774c-8.936,0-16.208-7.268-16.208-16.208s7.268-16.208,16.208-16.208
			s16.212,7.272,16.212,16.208C440.216,408.502,432.94,415.774,424.004,415.774z M464.056,415.774
			c-8.936,0-16.208-7.268-16.208-16.208s7.268-16.208,16.208-16.208s16.212,7.272,16.212,16.208
			C480.268,408.502,472.992,415.774,464.056,415.774z"/>
	</g>
</g>
<g>
	<g>
		<path d="M255.984,163.814c-50.78,0-91.944,41.164-91.944,91.94s41.164,91.94,91.944,91.94c50.78,0,91.944-41.164,91.944-91.94
			S306.764,163.814,255.984,163.814z M312.624,244.198l-56.196,56.192c-2.264,2.272-5.28,3.512-8.484,3.512
			s-6.216-1.244-8.484-3.512l-32.968-32.968c-4.676-4.676-4.676-12.292,0-16.968c4.536-4.536,12.432-4.536,16.968,0l24.484,24.484
			l47.712-47.708c4.536-4.536,12.432-4.536,16.968,0c2.268,2.264,3.516,5.28,3.516,8.484
			C316.14,238.922,314.892,241.938,312.624,244.198z"/>
	</g>
</g>
</svg>